<svg id="Capa_1" enable-background="new 0 0 505 505" height="15" viewBox="0 0 505 505" width="15"
    xmlns="http://www.w3.org/2000/svg" fill="currentColor">
    <g>
        <path fill="currentColor"
            d="m477.5 270.181v-90.362l-54.624-13.005c-2.464-7.21-5.395-14.275-8.766-21.131l29.436-47.834-63.896-63.896-47.834 29.437c-6.855-3.371-13.92-6.302-21.13-8.766l-13.005-54.624h-90.361l-13.006 54.624c-7.21 2.464-14.275 5.395-21.13 8.766l-47.834-29.437-63.897 63.896 29.436 47.834c-3.371 6.856-6.302 13.921-8.766 21.131l-54.623 13.004v90.362l54.624 13.006c2.464 7.21 5.395 14.275 8.766 21.131l-29.575 48.059 44.304 42.436c-4.694 14.068-7.119 28.862-7.119 43.881v66.307h310v-66.307c0-14.506-2.274-28.8-6.658-42.435l41.487-44.461-29.218-47.479c3.371-6.856 6.302-13.921 8.766-21.131zm-99 204.819h-250v-36.307c0-20.806 5.928-41.066 17.144-58.591 20.078-31.373 54.302-50.102 91.549-50.102h32.614c37.247 0 71.471 18.729 91.549 50.101 11.216 17.525 17.144 37.786 17.144 58.592zm-125-176.25c-38.253 0-69.375-31.122-69.375-69.375s31.122-69.375 69.375-69.375 69.375 31.122 69.375 69.375-31.122 69.375-69.375 69.375zm152.296 49.297-17.443 18.693c-.57-.94-1.135-1.883-1.729-2.81-17.205-26.883-42.557-46.474-71.744-56.455 23.122-18.211 37.994-46.451 37.994-78.1 0-54.795-44.58-99.375-99.375-99.375s-99.375 44.58-99.375 99.375c0 31.649 14.872 59.889 37.994 78.1-29.187 9.98-54.539 29.572-71.744 56.455-.462.722-.897 1.458-1.345 2.187l-19.47-18.649 25.939-42.151-19.62-47.312-48.378-11.52v-42.971l48.379-11.519 19.62-47.312-26.078-42.376 30.385-30.385 42.377 26.078 47.312-19.62 11.52-48.38h42.971l11.519 48.379 47.312 19.621 42.376-26.078 30.385 30.385-26.078 42.376 19.62 47.312 48.379 11.519v42.971l-48.379 11.519-19.62 47.312z" />
    </g>
</svg>