<svg width="512.006" height="512.006" xmlns="http://www.w3.org/2000/svg" enable-background="new 0 0 512.006 512.006">

 <g>
  <title>Layer 1</title>
  <path id="svg_1" d="m392.503,452c0,16.199 -6.219,31.261 -17.51,42.41c-11.528,11.384 -27.456,17.777 -43.743,17.588c-16.177,-0.205 -30.612,-6.362 -41.748,-17.806l-90.999,-93.515l-90.999,93.515c-11.057,11.363 -25.458,17.519 -41.649,17.804c-0.354,0.006 -0.711,0.009 -1.065,0.009c-15.968,0 -31.518,-6.31 -42.813,-17.407c-11.268,-11.071 -17.474,-26.076 -17.474,-42.25l0,-372.348c0,-44.112 35.888,-80 80,-80l228,0c44.112,0 80,35.888 80,80c0,11.046 -8.954,20 -20,20s-20,-8.954 -20,-20c0,-22.056 -17.944,-40 -40,-40l-228,0c-22.056,0 -40,17.944 -40,40l0,372.349c0,5.512 1.854,10.127 5.508,13.718c3.883,3.815 9.513,6.035 15.14,5.936c5.568,-0.098 10.045,-1.964 13.686,-5.706l105.333,-108.246c3.766,-3.869 8.936,-6.052 14.334,-6.052s10.568,2.183 14.334,6.052l105.332,108.246c3.667,3.77 8.111,5.635 13.586,5.705c5.605,0.083 11.223,-2.192 15.133,-6.054c3.726,-3.679 5.614,-8.371 5.614,-13.947c0,-11.046 8.954,-20 20,-20s20,8.953 20,19.999zm115,-188c0,74.439 -60.561,135 -135,135s-135,-60.561 -135,-135s60.561,-135 135,-135s135,60.561 135,135zm-40,0c0,-52.383 -42.617,-95 -95,-95s-95,42.617 -95,95s42.617,95 95,95s95,-42.617 95,-95zm-55,-20l-20,0l0,-20c0,-11.046 -8.954,-20 -20,-20s-20,8.954 -20,20l0,20l-20,0c-11.046,0 -20,8.954 -20,20s8.954,20 20,20l20,0l0,20c0,11.046 8.954,20 20,20s20,-8.954 20,-20l0,-20l20,0c11.046,0 20,-8.954 20,-20s-8.954,-20 -20,-20z" fill="#4353f9"/>
  <rect id="svg_2" height="43.4285" width="120.57123" y="200.56768" x="323.42461" stroke-opacity="0" stroke="#0f0f00" fill="#fff"/>
  <rect stroke="#0f0f00" id="svg_3" height="42.28564" width="117.71409" y="283.99611" x="321.1389" stroke-opacity="0" fill="#fff"/>
  <rect stroke="#000000" id="svg_6" height="445.21737" width="81.73913" y="29.2144" x="42.95952" stroke-opacity="0" stroke-width="39" fill="#4353f9"/>
  <rect id="svg_7" height="351.30434" width="93.91304" y="32.69266" x="111.65517" stroke-opacity="0" stroke-width="39" stroke="#000000" fill="#4353f9"/>
  <rect id="svg_8" height="60" width="95.65217" y="363.12744" x="69.04647" stroke-opacity="0" stroke-width="39" stroke="#000000" fill="#4353f9"/>
  <rect id="svg_9" height="67.82609" width="193.04348" y="30.08396" x="170.7856" fill="#4353f9"/>
  <rect id="svg_10" height="307.82608" width="95.65217" y="79.64918" x="140.35082" fill="#4353f9"/>
  <rect stroke="null" id="svg_11" height="62.6087" width="39.13043" y="359.64917" x="225.56821" fill="#4353f9"/>
  <rect id="svg_12" height="11.30435" width="1.73913" y="367.47526" x="248.1769" fill="#4353f9"/>
  <rect stroke="null" id="svg_13" height="57.3913" width="67.82609" y="420.51874" x="294.26386" fill="#4353f9"/>
  <rect id="svg_14" height="5.21739" width="4.34783" y="437.04048" x="321.22038" fill="#4353f9"/>
  <rect id="svg_15" height="54.78261" width="61.73913" y="389.21439" x="256.87256" fill="#4353f9"/>
  <rect id="svg_16" height="41.73913" width="186.95652" y="75.30135" x="205.56821" stroke-opacity="0" stroke-width="39" stroke="#000000" fill="#4353f9"/>
  <rect id="svg_17" height="78.26087" width="68.69565" y="94.43179" x="182.08995" stroke-opacity="0" stroke-width="39" stroke="#000000" fill="#4353f9"/>
  <rect id="svg_18" height="64.34783" width="32.17391" y="97.04048" x="242.95951" stroke-opacity="0" stroke-width="39" stroke="#000000" fill="#4353f9"/>
  <rect id="svg_19" height="49.56522" width="57.3913" y="63.12744" x="262.08995" stroke-opacity="0" stroke-width="39" stroke="#000000" fill="#4353f9"/>
  <rect id="svg_20" height="94.78261" width="110.43478" y="41.38831" x="227.30734" stroke-opacity="0" stroke-width="39" stroke="#000000" fill="#4353f9"/>
  <rect id="svg_21" height="40.86956" width="52.17391" y="424.86657" x="326.43777" stroke-opacity="0" stroke-width="39" stroke="#000000" fill="#4353f9"/>
  <ellipse stroke="#ffffff" stroke-width="45" ry="151.73913" rx="151.73913" id="svg_4" cy="261.82309" cx="371.2204" fill-opacity="0" fill="#0fffff"/>
  <rect stroke="#000000" id="svg_22" height="419.13043" width="80" y="55.30136" x="9.04647" stroke-opacity="0" stroke-width="39" fill="#4353f9"/>
 </g>
</svg>