<svg id="Layer_1" enable-background="new 0 0 32 32" height="512" viewBox="0 0 32 32" width="512"
    xmlns="http://www.w3.org/2000/svg">
    <g>
        <path fill="white" d="m28.111 19.93c-.553 0-1 .447-1 1v4.657l-8.07-8.071c-.195-.195-.451-.293-.707-.293s-.512.098-.707.293c-.391.391-.391 1.023 0 1.414l8.069 8.07h-4.655c-.553 0-1 .447-1 1s.447 1 1 1h7.07c.553 0 1-.447 1-1v-7.07c0-.553-.447-1-1-1z" />
        <path fill="white" d="m6.414 5.111h4.656c.553 0 1-.447 1-1s-.447-1-1-1h-7.07c-.553 0-1 .447-1 1v7.07c0 .553.447 1 1 1s1-.447 1-1v-4.656l8.182 8.182c.391.391 1.023.391 1.414 0s.391-1.023 0-1.414z" />
    </g>
</svg>