<?xml version="1.0" encoding="utf-8"?>
<!-- Generator: Adobe Illustrator 16.0.0, SVG Export Plug-In . SVG Version: 6.00 Build 0)  -->
<!DOCTYPE svg PUBLIC "-//W3C//DTD SVG 1.1//EN" "http://www.w3.org/Graphics/SVG/1.1/DTD/svg11.dtd">
<svg version="1.1" id="Layer_1" xmlns="http://www.w3.org/2000/svg" xmlns:xlink="http://www.w3.org/1999/xlink" x="0px" y="0px"
	 width="212.795px" height="220.59px" viewBox="0 0 212.795 220.59" enable-background="new 0 0 212.795 220.59"
	 xml:space="preserve">
<path fill="#4BD6C1" d="M158.895,181.958c-16.076,15.75-38.095,25.454-62.377,25.454c-49.257,0-89.196-39.938-89.196-89.196
	c0-49.257,39.939-89.196,89.196-89.196v90.552L158.895,181.958z"/>
<path fill="#10003B" d="M96.518,209.412c-50.286,0-91.196-40.91-91.196-91.196S46.231,27.02,96.518,27.02c1.104,0,2,0.895,2,2
	v89.724l61.791,61.801c0.378,0.378,0.589,0.892,0.586,1.425s-0.219,1.044-0.601,1.418
	C143.164,200.169,120.515,209.412,96.518,209.412 M94.518,31.041C47.358,32.109,9.321,70.804,9.321,118.216
	c0,48.08,39.116,87.196,87.196,87.196c22.27,0,43.323-8.324,59.519-23.485l-60.933-60.941c-0.375-0.375-0.586-0.883-0.586-1.414
	V31.041z"/>
<path fill="#10003B" d="M23.938,102.661c-0.161,0-0.324-0.019-0.487-0.06c-1.071-0.268-1.723-1.354-1.454-2.426
	C26.32,82.878,36.79,67.69,51.475,57.411c0.905-0.633,2.151-0.413,2.785,0.492c0.633,0.904,0.413,2.152-0.492,2.785
	c-13.894,9.727-23.8,24.095-27.891,40.458C25.649,102.056,24.835,102.661,23.938,102.661"/>
<path fill="#10003B" d="M25.456,142.997c-0.838,0-1.619-0.531-1.896-1.37c-2.503-7.527-3.773-15.404-3.773-23.411
	c0-1.104,0.896-2,2-2c1.105,0,2,0.896,2,2c0,7.576,1.2,15.028,3.567,22.149c0.349,1.048-0.219,2.181-1.267,2.528
	C25.878,142.964,25.665,142.997,25.456,142.997"/>
<path fill="#52C0F5" d="M195.908,108.021c0,0.448,0,0.907-0.021,1.355h-89.176V18.825C155.97,18.825,195.908,58.765,195.908,108.021
	"/>
<path fill="#10003B" d="M195.888,111.377h-89.176c-1.104,0-2-0.896-2-2V18.825c0-1.104,0.896-2,2-2
	c50.286,0,91.196,40.91,91.196,91.197c0,0.478-0.001,0.968-0.022,1.446C197.837,110.536,196.957,111.377,195.888,111.377
	 M108.712,107.377h85.194c-0.341-47.118-38.248-85.466-85.194-86.528V107.377z"/>
<path fill="#10003B" d="M158.898,56.479c-0.502,0-1.005-0.187-1.394-0.564c-6.529-6.34-14.069-11.343-22.41-14.871
	c-1.016-0.43-1.493-1.604-1.063-2.621c0.43-1.018,1.602-1.491,2.621-1.063c8.799,3.723,16.752,8.998,23.64,15.685
	c0.792,0.77,0.81,2.036,0.041,2.829C159.941,56.276,159.42,56.479,158.898,56.479"/>
<path fill="#FE7058" d="M206.082,119.571c-0.355,24.436-10.551,46.494-26.8,62.387l-62.376-62.387H206.082z"/>
<path fill="#10003B" d="M179.282,183.958c-0.512,0-1.024-0.195-1.414-0.586l-62.376-62.387c-0.571-0.572-0.743-1.433-0.434-2.18
	s1.039-1.234,1.848-1.234h89.177c0.534,0,1.048,0.215,1.424,0.596c0.376,0.383,0.583,0.898,0.576,1.434
	c-0.354,24.197-10.084,46.851-27.402,63.787C180.293,183.769,179.787,183.958,179.282,183.958 M121.734,121.571l57.548,57.56
	c15.209-15.55,23.936-35.848,24.747-57.56H121.734z"/>
<path fill="#10003B" d="M169.465,158.892c-0.512,0-1.022-0.195-1.414-0.586l-18.153-18.158c-0.782-0.78-0.782-2.048,0-2.828
	c0.78-0.781,2.047-0.781,2.827,0l18.154,18.158c0.781,0.781,0.781,2.048,0,2.828C170.488,158.696,169.978,158.892,169.465,158.892"
	/>
</svg>
