<svg enable-background="new 0 0 24 24" height="512" viewBox="0 0 24 24" width="512"
    xmlns="http://www.w3.org/2000/svg">
    <path fill="white" stroke="black" stroke-width="1px" d="m23 13h-9c-.552 0-1 .448-1 1v9c0 .552.448 1 1 1h9c.552 0 1-.448 1-1v-9c0-.552-.448-1-1-1z" />
    <path fill="white" stroke="black" stroke-width="1px" d="m1 24h9c.552 0 1-.448 1-1v-9c0-.552-.448-1-1-1h-9c-.552 0-1 .448-1 1v9c0 .552.448 1 1 1z" />
    <path fill="white" stroke="black" stroke-width="1px" d="m23 0h-22c-.552 0-1 .448-1 1v9c0 .552.448 1 1 1h22c.552 0 1-.448 1-1v-9c0-.552-.448-1-1-1z" />
</svg>