<?xml version="1.0" encoding="iso-8859-1"?>
<!-- Generator: Adobe Illustrator 19.0.0, SVG Export Plug-In . SVG Version: 6.00 Build 0)  -->
<svg version="1.1" id="Layer_1" xmlns="http://www.w3.org/2000/svg" xmlns:xlink="http://www.w3.org/1999/xlink" x="0px" y="0px"
	 viewBox="0 0 512 512" style="enable-background:new 0 0 512 512;" xml:space="preserve">
<circle style="fill:#273B7A;" cx="256" cy="256" r="256"/>
<path style="fill:#121149;" d="M265.885,511.791c115.71-4.396,211.74-85.576,238.604-194.06L369.778,183.02l-62.68,55.696
	l-38.169-38.169l-152.124,25.174l65.434,85.011l-33.352,84.061L265.885,511.791z"/>
<path style="fill:#FFFFFF;" d="M300.535,113.778H159.03c-9.283,0-16.808,7.525-16.808,16.808v250.828
	c0,9.283,7.525,16.808,16.808,16.808H352.97c9.283,0,16.808-7.525,16.808-16.808V183.02L300.535,113.778z"/>
<path style="fill:#D0D1D3;" d="M300.535,113.778H256v284.444h96.97c9.283,0,16.808-7.525,16.808-16.808V183.02L300.535,113.778z"/>
<path style="fill:#A6A8AA;" d="M300.535,166.212c0,9.283,7.525,16.808,16.808,16.808h52.434l-69.242-69.242V166.212z"/>
<path style="fill:#FF5419;" d="M247.811,227.556H121.966c-4.522,0-8.189-3.667-8.189-8.189v-40.512c0-4.522,3.667-8.189,8.189-8.189
	h125.845c4.522,0,8.189,3.667,8.189,8.189v40.512C256,223.889,252.333,227.556,247.811,227.556z"/>
<g>
	<path style="fill:#FFFFFF;" d="M156.379,211.308h-5.797v-12.448h-10.824v12.448h-5.799v-27.757h5.799v10.516h10.823v-10.516h5.798
		v27.757H156.379z"/>
	<path style="fill:#FFFFFF;" d="M182.241,188.461h-8.387v22.847h-5.799v-22.847h-8.389v-4.91h22.576v4.91H182.241z"/>
	<path style="fill:#FFFFFF;" d="M212.314,211.308h-5.413l-0.078-23.193l-5.18,23.193h-5.682l-5.141-23.193v23.193h-5.413v-27.757
		h8.466l5.103,21.88l4.948-21.88h8.389v27.757H212.314z"/>
	<path style="fill:#FFFFFF;" d="M237.482,211.308h-19.599v-27.757h5.798v22.731h13.802V211.308z"/>
</g>
<path style="fill:#FF5419;" d="M221.72,357.048c-1.324,0-2.646-0.505-3.656-1.515l-30.367-30.367c-2.02-2.019-2.02-5.292,0-7.313
	l30.367-30.368c2.02-2.02,5.292-2.02,7.313,0c2.02,2.019,2.02,5.292,0,7.313l-26.71,26.712l26.71,26.71
	c2.02,2.019,2.02,5.294,0,7.313C224.366,356.543,223.044,357.048,221.72,357.048z"/>
<path style="fill:#C92F00;" d="M290.28,357.048c-1.324,0-2.646-0.505-3.656-1.515c-2.02-2.019-2.02-5.292,0-7.313l26.71-26.712
	l-26.712-26.712c-2.02-2.019-2.02-5.294,0-7.313c2.02-2.02,5.292-2.02,7.313,0l30.368,30.368c2.02,2.019,2.02,5.292,0,7.313
	l-30.367,30.368C292.926,356.543,291.602,357.048,290.28,357.048z"/>
<path style="fill:#FF5419;" d="M239.202,357.05c-0.777,0-1.567-0.178-2.31-0.546c-2.553-1.277-3.589-4.384-2.313-6.939
	l30.368-60.735c1.281-2.551,4.389-3.584,6.939-2.313c2.553,1.277,3.589,4.384,2.313,6.939l-30.368,60.735
	C242.924,356.002,241.097,357.05,239.202,357.05z"/>
<path style="fill:#C92F00;" d="M271.888,286.515c-2.55-1.271-5.658-0.24-6.939,2.313l-8.947,17.894v23.131l18.199-36.399
	C275.477,290.899,274.441,287.792,271.888,286.515z"/>
<g>
</g>
<g>
</g>
<g>
</g>
<g>
</g>
<g>
</g>
<g>
</g>
<g>
</g>
<g>
</g>
<g>
</g>
<g>
</g>
<g>
</g>
<g>
</g>
<g>
</g>
<g>
</g>
<g>
</g>
</svg>
