<?xml version="1.0" encoding="iso-8859-1"?>
<!-- Generator: Adobe Illustrator 19.0.0, SVG Export Plug-In . SVG Version: 6.00 Build 0)  -->
<svg version="1.1" id="Capa_1" xmlns="http://www.w3.org/2000/svg" xmlns:xlink="http://www.w3.org/1999/xlink" x="0px" y="0px"
	 viewBox="0 0 512 512" style="enable-background:new 0 0 512 512;" xml:space="preserve">
<g>
	<g>
		<path d="M302,306c-5.52,0-10,4.48-10,10c0,5.52,4.48,10,10,10c5.52,0,10-4.48,10-10C312,310.48,307.52,306,302,306z"/>
	</g>
</g>
<g>
	<g>
		<path d="M482,186h-10V10c0-5.523-4.477-10-10-10C448.641,0,89.921,0,50,0c-5.523,0-10,4.477-10,10v56H30C13.424,66,0,79.425,0,96
			c0,16.542,13.458,30,30,30h10v40H30c-16.576,0-30,13.425-30,30c0,16.542,13.458,30,30,30h10v40H30c-16.576,0-30,13.425-30,30
			c0,16.542,13.458,30,30,30h10v40H30c-16.576,0-30,13.425-30,30c0,16.542,13.458,30,30,30h10v76c0,5.523,4.477,10,10,10
			c41.189,0,398.604,0,412,0c5.523,0,10-4.477,10-10c0-5.812,0-191.824,0-196h10c16.542,0,30-13.458,30-30v-60
			C512,199.458,498.542,186,482,186z M432,20h20v166h-20V20z M252,20h40v77.315l-14.453-9.635c-3.358-2.239-7.735-2.239-11.094,0
			L252,97.315V20z M30,106c-5.514,0-10-4.486-10-10c0-5.521,4.478-10,10-10h40c5.514,0,10,4.486,10,10c0,5.521-4.478,10-10,10H30z
			 M30,206c-5.514,0-10-4.486-10-10c0-5.521,4.478-10,10-10h40c5.514,0,10,4.486,10,10c0,5.521-4.478,10-10,10H30z M30,306
			c-5.514,0-10-4.486-10-10c0-5.521,4.478-10,10-10h40c5.514,0,10,4.486,10,10c0,5.521-4.478,10-10,10H30z M30,406
			c-5.514,0-10-4.486-10-10c0-5.521,4.478-10,10-10h40c5.514,0,10,4.486,10,10c0,5.521-4.478,10-10,10H30z M332,492H60v-66h10
			c16.576,0,30-13.425,30-30c0-16.542-13.458-30-30-30H60v-40h10c16.576,0,30-13.425,30-30c0-16.542-13.458-30-30-30H60v-40h10
			c16.576,0,30-13.425,30-30c0-16.542-13.458-30-30-30H60v-40h10c16.576,0,30-13.425,30-30c0-16.542-13.458-30-30-30H60V20h172v96
			c0,3.688,2.03,7.077,5.281,8.817c3.251,1.739,7.197,1.55,10.266-0.497L272,108.019l24.453,16.302
			c3.073,2.049,7.018,2.234,10.266,0.497c3.251-1.74,5.281-5.129,5.281-8.817V20h20V492z M412,492h-20v-46h20V492z M452,492h-20v-46
			h10c3.506,0,6.87-0.61,10-1.72V492z M452,416c0,5.514-4.486,10-10,10h-60c-5.523,0-10,4.477-10,10v56h-20V20h20v316
			c0,5.523,4.477,10,10,10h60c5.514,0,10,4.486,10,10V416z M452,327.72c-3.13-1.11-6.494-1.72-10-1.72h-10v-20h20V327.72z M492,276
			c0,5.514-4.486,10-10,10h-60c-5.523,0-10,4.477-10,10v30h-20V20h20v176c0,5.523,4.477,10,10,10h60c5.514,0,10,4.486,10,10V276z"/>
	</g>
</g>
<g>
	<g>
		<path d="M302,266H130c-5.523,0-10,4.477-10,10s4.477,10,10,10h172c5.523,0,10-4.477,10-10S307.523,266,302,266z"/>
	</g>
</g>
<g>
	<g>
		<path d="M262,306H130c-5.523,0-10,4.477-10,10s4.477,10,10,10h132c5.523,0,10-4.477,10-10S267.523,306,262,306z"/>
	</g>
</g>
<g>
	<g>
		<path d="M302,166H130c-5.523,0-10,4.477-10,10v60c0,5.523,4.477,10,10,10h172c5.523,0,10-4.477,10-10v-60
			C312,170.477,307.523,166,302,166z M292,226H140v-40h152V226z"/>
	</g>
</g>
<g>
</g>
<g>
</g>
<g>
</g>
<g>
</g>
<g>
</g>
<g>
</g>
<g>
</g>
<g>
</g>
<g>
</g>
<g>
</g>
<g>
</g>
<g>
</g>
<g>
</g>
<g>
</g>
<g>
</g>
</svg>
