<?xml version="1.0" encoding="UTF-8"?>
<svg xmlns="http://www.w3.org/2000/svg" id="Layer_1" data-name="Layer 1" viewBox="0 0 48 48" width="15" height="15">
    <path fill="#333"
        d="M32.292,48h-.854C16.936,48,6,37.683,6,24S16.936,0,31.438,0h.417c3.26,0,6.615,0,9.506,1.113a1,1,0,0,1,0,1.866A22.061,22.061,0,0,0,27,24,22.061,22.061,0,0,0,41.359,45.021a1,1,0,0,1,0,1.866C38.6,47.955,35.406,48,32.292,48ZM32.283,2h-.845C18.076,2,8,11.458,8,24S18.076,46,31.438,46h.419A41.723,41.723,0,0,0,38,45.7,23.975,23.975,0,0,1,25,24,23.975,23.975,0,0,1,38,2.3,37.825,37.825,0,0,0,32.283,2Z" />
</svg>