<?xml version="1.0" encoding="iso-8859-1"?>
<!-- Generator: Adobe Illustrator 21.0.0, SVG Export Plug-In . SVG Version: 6.00 Build 0)  -->
<svg xmlns="http://www.w3.org/2000/svg"
	xmlns:xlink="http://www.w3.org/1999/xlink" version="1.1" id="Capa_1" x="0px" y="0px" viewBox="0 0 512 512" style="enable-background:new 0 0 512 512;" width="30px" height="30px" xml:space="preserve" fill="#DC3444">
	<g>
		<circle cx="93.833" cy="256" r="93.833" />
		<path d="M388.8,208.992c8.284,0,15-6.716,15-15s-6.716-15-15-15h-32.133c-8.284,0-15,6.716-15,15v120c0,8.284,6.716,15,15,15H388.8   c8.284,0,15-6.716,15-15s-6.716-15-15-15h-17.133v-30H388.8c8.284,0,15-6.716,15-15s-6.716-15-15-15h-17.133v-30H388.8z" />
		<path d="M497,303.008c-18.307,0-33.2-14.894-33.2-33.2v-27.616c0-18.307,14.894-33.2,33.2-33.2c8.284,0,15-6.716,15-15   s-6.716-15-15-15c-34.849,0-63.2,28.352-63.2,63.2v27.616c0,34.849,28.352,63.2,63.2,63.2c8.284,0,15-6.716,15-15   S505.284,303.008,497,303.008z" />
		<path d="M252.688,178.992h-20.021c-8.284,0-15,6.716-15,15v120c0,8.284,6.716,15,15,15s15-6.716,15-15v-27.144l33.908,37.243   c2.96,3.251,7.021,4.901,11.096,4.901c3.604,0,7.22-1.291,10.095-3.908c6.126-5.577,6.57-15.064,0.993-21.19l-23.6-25.921   c4.006-2.236,7.745-4.968,11.118-8.179c10.416-9.892,16.391-23.657,16.391-37.768v-0.019   C307.667,202.774,283.003,178.992,252.688,178.992z M247.667,208.992h5.021c13.773,0,24.979,10.324,24.979,23.015v0.019   c0,6.01-2.503,11.696-7.063,16.026c-4.678,4.453-11.216,7.007-17.938,7.007h-5V208.992z" />
	</g>















</svg>
