<svg height="512" viewBox="0 0 96 96" width="512" xmlns="http://www.w3.org/2000/svg"><g id="Layer_1"><g><path d="m66.896 31h9.143c3.361 0 6.961 2.592 6.961 5.954v26.82c0 3.362-3.6 6.226-6.961 6.226h-56.078c-3.361 0-6.961-2.864-6.961-6.226v-26.82c0-3.362 3.6-5.954 6.961-5.954h8.534c2.019 0 3.657-1.481 3.657-3.5s-1.638-3.5-3.657-3.5h-8.534c-7.394 0-12.961 5.561-12.961 12.954v26.82c0 7.393 5.567 13.226 12.961 13.226h16.959l-3.626 7h-4.799c-2.019 0-3.657 1.981-3.657 4s1.638 4 3.657 4h39.01c2.019 0 3.657-1.981 3.657-4s-1.638-4-3.657-4h-4.97l-3.626-7h17.13c7.394 0 12.961-5.833 12.961-13.226v-26.82c0-7.393-5.567-12.954-12.961-12.954h-9.143c-2.019 0-3.657 1.481-3.657 3.5s1.638 3.5 3.657 3.5zm-25.439 53 3.626-7h5.662l3.626 7z"/><g><path d="m34.604 15.204c-1.427 1.429-1.427 3.743.001 5.172.713.714 2.968 1.708 4.98 0l4.415-4.609v26.673c0 2.019 1.981 3.657 4 3.657 2.02 0 4-1.638 4-3.657v-26.733l4.258 4.407c1.427 1.429 3.669 1.429 5.098 0 1.427-1.429 1.389-3.743-.039-5.172l-9.293-9.276c-2.168-2.16-5.705-2.162-7.874.002z"/><path d="m49.219 65c2.019 0 3.657-1.481 3.657-3.5s-1.638-3.5-3.657-3.5h-2.438c-2.019 0-3.657 1.481-3.657 3.5s1.638 3.5 3.657 3.5z"/></g></g></g></svg>