<svg width="23.999999999999996" height="23.999999999999996"
    xmlns="http://www.w3.org/2000/svg" class="feather feather-thumbs-up" stroke-linejoin="round" stroke-linecap="round" stroke-width="1" stroke="#DC3444" fill="#ff4356">

    <g>
        <title>Layer 1</title>
        <path transform="rotate(-180 12 12)" id="svg_1" d="m14.15868,8.99994l0,-4a3,3 0 0 0 -3,-3l-4,9l0,11l11.28,0a2,2 0 0 0 2,-1.7l1.38,-9a2,2 0 0 0 -2,-2.3l-5.66,0zm-7,13l-3,0a2,2 0 0 1 -2,-2l0,-7a2,2 0 0 1 2,-2l3,0" />
    </g>
</svg>