<svg height="511.999pt" viewBox="1 1 511.999 511.999" width="511.999pt" xmlns="http://www.w3.org/2000/svg"><path d="m486.019531 131.316406c-15.179687-16.519531-35.316406-27.277344-57.257812-30.71875-3.097657-24.007812-23.671875-42.613281-48.511719-42.613281-4.605469 0-9.117188.628906-13.476562 1.878906-27.960938-37.589843-72.042969-59.863281-119.054688-59.863281-32.367188 0-63.121094 10.242188-88.941406 29.617188-23.464844 17.609374-41.460938 42.230468-51.109375 69.78125h-9.050781c-54.378907 0-98.617188 44.238281-98.617188 98.617187s44.238281 98.617187 98.617188 98.617187h23.648437c4.140625 0 7.5-3.355468 7.5-7.5 0-4.144531-3.359375-7.5-7.5-7.5h-23.648437c-46.105469 0-83.617188-37.511718-83.617188-83.617187s37.511719-83.617187 83.617188-83.617187h14.480468c3.292969 0 6.199219-2.148438 7.167969-5.296876 17.296875-56.285156 68.515625-94.101562 127.453125-94.101562 43.996094 0 85.136719 21.703125 110.046875 58.054688 2.019531 2.953124 5.847656 4.0625 9.140625 2.65625 4.222656-1.8125 8.710938-2.730469 13.34375-2.730469 18.691406 0 33.898438 15.199219 33.914062 33.882812l-.007812.324219c-.042969 3.914062 2.929688 7.207031 6.828125 7.558594 43.335937 3.898437 76.015625 39.699218 76.015625 83.269531 0 46.105469-37.511719 83.617187-83.617188 83.617187h-116.75v-18.132812h25.632813c3.035156 0 5.769531-1.828125 6.929687-4.632812 1.160157-2.800782.519532-6.027344-1.625-8.171876l-66.265624-66.265624c-2.929688-2.929688-7.679688-2.929688-10.609376 0l-66.265624 66.265624c-2.144532 2.144532-2.789063 5.371094-1.625 8.171876 1.160156 2.804687 3.894531 4.632812 6.925781 4.632812h25.636719v18.132812h-63.101563c-4.144531 0-7.5 3.355469-7.5 7.5 0 4.144532 3.355469 7.5 7.5 7.5h63.101563v34.699219h-25.917969c-8.546875 0-15.5 6.953125-15.5 15.5v149.667969c0 8.546875 6.953125 15.5 15.5 15.5h133.097656c8.546875 0 15.5-6.953125 15.5-15.5v-149.664062c0-8.550782-6.953125-15.5-15.5-15.5h-25.914063v-34.703126h116.75c54.378907 0 98.617188-44.238281 98.617188-98.617187 0-24.777344-9.226562-48.46875-25.980469-66.699219zm-163.46875 365.683594h-133.101562c-.273438 0-.5-.226562-.5-.5v-117.035156h134.101562v117.035156c0 .273438-.226562.5-.5.5zm.5-150.164062v17.632812h-134.101562v-17.632812c0-.277344.226562-.5.5-.5h133.101562c.273438 0 .5.222656.5.5zm-92.683593-15.5v-75.335938c0-4.144531-3.359376-7.5-7.5-7.5h-15.027344l48.160156-48.160156 48.160156 48.160156h-15.027344c-4.140624 0-7.5 3.355469-7.5 7.5v33.113281.015625.015625 42.191407zm0 0"/><path d="m272.566406 397.597656h-8.285156c-4.140625 0-7.5 3.359375-7.5 7.5v27.414063c-2.800781-1.144531-5.859375-1.777344-9.066406-1.777344-13.269532 0-24.066406 10.792969-24.066406 24.066406 0 13.269531 10.796874 24.0625 24.066406 24.0625 13.269531 0 24.066406-10.792969 24.066406-24.0625v-42.203125h.785156c4.140625 0 7.5-3.355468 7.5-7.5 0-4.140625-3.359375-7.5-7.5-7.5zm-24.851562 66.269532c-4.996094 0-9.066406-4.066407-9.066406-9.066407s4.066406-9.066406 9.066406-9.066406 9.066406 4.066406 9.066406 9.066406-4.066406 9.066407-9.066406 9.066407zm0 0"/></svg>