<svg id="Layer_1" enable-background="new 0 0 512 512" height="512" viewBox="0 0 512 512" width="512" xmlns="http://www.w3.org/2000/svg"><path d="m129.656 230.26c-6.428-6.063-6.724-16.189-.661-22.618l54.501-57.781c3.023-3.205 7.233-5.021 11.639-5.021s8.616 1.816 11.639 5.021l54.501 57.781c6.063 6.428 5.768 16.555-.661 22.618-6.428 6.063-16.554 5.768-22.618-.661l-26.862-28.478v111.747c0 8.836-7.164 16-16 16s-16-7.164-16-16v-111.748l-26.862 28.479c-3.147 3.337-7.391 5.021-11.642 5.021-3.937.001-7.882-1.444-10.974-4.36zm132.35 104.9h-133.74c-8.836 0-16 7.164-16 16s7.164 16 16 16h133.741c8.836 0 16-7.164 16-16s-7.164-16-16.001-16zm249.994-239.878v321.437c0 5.716-3.05 10.998-8 13.856-2.475 1.429-5.238 2.144-8 2.144s-5.525-.714-8-2.144l-97.728-56.423v13.775c0 37.137-30.213 67.35-67.35 67.35h-255.572c-37.137 0-67.35-30.213-67.35-67.35v-263.853c0-37.137 30.213-67.35 67.35-67.35h255.572c37.137 0 67.35 30.213 67.35 67.35v13.775l97.728-56.424c4.95-2.858 11.05-2.858 16 0s8 8.14 8 13.857zm-153.728 28.792c0-19.492-15.858-35.35-35.35-35.35h-255.572c-19.492 0-35.35 15.858-35.35 35.35v263.853c0 19.492 15.858 35.35 35.35 35.35h255.572c19.492 0 35.35-15.858 35.35-35.35zm121.728-1.079-89.728 51.804v162.402l89.728 51.804z"/></svg>