<svg id="Capa_1" enable-background="new 0 0 512 512" height="512" viewBox="0 0 512 512" width="512" xmlns="http://www.w3.org/2000/svg"><g><g><path d="m98.81 53.93-44.88 44.89c-33.8 43.38-53.93 97.93-53.93 157.18 0 59.35 20.19 113.97 54.07 157.38l44.9 44.82c43.36 33.72 97.85 53.8 157.03 53.8l128-256-128-256c-59.25 0-113.8 20.14-157.19 53.93z" fill="#e6f2f2"/><path d="m512 256c0 59.34-20.19 113.97-54.07 157.38l-44.9 44.82c-43.36 33.72-97.85 53.8-157.03 53.8v-512c59.25 0 113.81 20.14 157.19 53.93l44.88 44.88c33.8 43.39 53.93 97.94 53.93 157.19z" fill="#cfe2e6"/><g><path d="m36.15 74.36c0 21.1 17.1 38.21 38.21 38.21l20-38.21-20-38.21c-21.11 0-38.21 17.11-38.21 38.21z" fill="#ffe666"/><path d="m112.57 74.36c0 21.1-17.11 38.21-38.21 38.21v-76.42c21.1 0 38.21 17.11 38.21 38.21z" fill="#ffc34d"/></g><g><path d="m36.145 437.962c0 21.1 17.1 38.21 38.21 38.21l20-38.21-20-38.21c-21.11 0-38.21 17.109-38.21 38.21z" fill="#66e6ff"/><path d="m112.565 437.962c0 21.1-17.11 38.21-38.21 38.21v-76.42c21.1 0 38.21 17.109 38.21 38.21z" fill="#4dc3ff"/></g><g><path d="m399.432 437.962c0 21.1 17.1 38.21 38.21 38.21l20-38.21-20-38.21c-21.11 0-38.21 17.109-38.21 38.21z" fill="#7d86b3"/><path d="m475.852 437.962c0 21.1-17.11 38.21-38.21 38.21v-76.42c21.1 0 38.21 17.109 38.21 38.21z" fill="#5c5c99"/></g><g><path d="m399.432 74.362c0 21.1 17.1 38.21 38.21 38.21l20-38.21-20-38.21c-21.11 0-38.21 17.11-38.21 38.21z" fill="#f69"/><path d="m475.852 74.362c0 21.1-17.11 38.21-38.21 38.21v-76.42c21.1 0 38.21 17.11 38.21 38.21z" fill="#f37"/></g></g><path d="m315.781 226.647-10 29.144 10 30.401 66.546 19.268v-98.08z" fill="#404080"/><path d="m256 328.63h-121.327v-144.42h121.327l20 72.21z" fill="#7d86b3"/><path d="m256 184.21h59.781v144.421h-59.781z" fill="#5c5c99"/></g></svg>